<?xml version="1.0" standalone="no"?>
<!DOCTYPE svg PUBLIC "-//W3C//DTD SVG 20010904//EN"
 "http://www.w3.org/TR/2001/REC-SVG-20010904/DTD/svg10.dtd">
<svg version="1.0" xmlns="http://www.w3.org/2000/svg"
 width="500.000000pt" height="116.000000pt" viewBox="0 0 500.000000 116.000000"
 preserveAspectRatio="xMidYMid meet">

<g transform="translate(0.000000,116.000000) scale(0.100000,-0.100000)"
fill="#000000" stroke="none">
<path d="M1203 1111 c4 -16 1 -17 -32 -10 -20 5 -65 8 -101 7 l-65 -1 75 -7
c144 -13 246 -58 336 -148 50 -51 124 -164 124 -190 0 -22 -20 -12 -21 11 0
21 -1 21 -10 2 -7 -15 -8 -13 -3 12 3 19 1 34 -7 39 -9 5 -10 2 -6 -9 3 -10 2
-17 -3 -17 -6 0 -10 16 -10 35 0 19 -4 35 -8 35 -5 0 -14 10 -20 23 -9 19 -10
16 -6 -18 l4 -39 -37 44 c-21 24 -37 49 -35 55 2 5 1 7 -3 3 -4 -3 -33 11 -66
32 -123 80 -292 93 -420 33 -36 -16 -80 -43 -99 -60 -32 -27 -88 -44 -75 -22
4 5 15 9 25 9 10 0 21 4 25 9 3 6 -7 6 -27 0 -42 -12 -44 -11 -30 3 6 6 28 13
49 15 43 5 64 19 56 39 -4 10 3 14 28 14 19 0 46 6 60 14 14 7 38 16 55 20 25
7 27 9 11 17 -10 6 -32 8 -50 4 -25 -5 -29 -4 -17 5 13 10 12 11 -3 6 -10 -3
-22 -6 -25 -6 -4 0 -1 -4 7 -9 10 -6 5 -13 -19 -25 -41 -20 -60 -21 -34 -1 35
27 3 15 -39 -14 -75 -52 -188 -189 -187 -225 1 -6 10 7 22 29 12 22 23 34 26
27 2 -7 -2 -20 -9 -28 -11 -13 -9 -14 15 -3 18 9 23 15 14 20 -7 4 -9 11 -5
16 18 17 25 -22 9 -49 -11 -19 -18 -24 -24 -15 -9 15 -33 -7 -43 -43 -7 -22
-6 -23 8 -12 9 8 14 19 11 27 -3 7 -1 16 4 19 5 3 10 -6 10 -19 -1 -14 -4 -28
-9 -31 -4 -2 -7 -10 -5 -17 1 -7 1 -8 -2 -4 -2 5 -13 1 -23 -9 -17 -15 -19
-15 -19 -1 0 9 5 28 10 43 6 15 8 29 6 31 -3 3 -10 -13 -17 -36 -9 -32 -9 -43
0 -55 7 -8 9 -21 5 -27 -5 -9 -10 -7 -15 7 -5 13 -8 4 -8 -28 -1 -53 7 -60 28
-26 13 21 13 22 -2 9 -15 -12 -17 -11 -17 3 0 10 3 15 8 12 4 -2 12 7 19 20 6
14 7 24 1 24 -5 0 -6 5 -2 11 5 8 10 6 16 -5 6 -11 6 -22 -2 -30 -6 -8 -10
-18 -9 -22 4 -23 -3 -42 -22 -62 -15 -17 -19 -32 -16 -60 l4 -37 1 36 c2 42
26 71 34 42 3 -10 1 -27 -4 -38 -7 -17 -8 -17 -4 4 4 17 2 21 -6 13 -6 -6 -8
-22 -4 -37 7 -26 8 -27 22 -9 14 18 14 18 7 -1 -3 -11 -9 -22 -13 -25 -4 -3
-3 -16 1 -30 6 -23 7 -23 8 -3 1 12 5 24 10 27 5 4 3 -17 -5 -46 -13 -51 -12
-54 13 -98 68 -116 195 -212 323 -245 61 -16 204 -18 250 -3 8 3 12 3 8 1 -5
-3 -8 -11 -8 -18 0 -12 9 -11 51 1 186 55 331 219 374 421 27 126 11 246 -49
368 -64 128 -178 229 -310 275 -72 24 -69 24 -63 1z m-246 -57 c-3 -3 -12 -4
-19 -1 -8 3 -5 6 6 6 11 1 17 -2 13 -5z m-47 -14 c0 -5 -4 -10 -10 -10 -5 0
-10 5 -10 10 0 6 5 10 10 10 6 0 10 -4 10 -10z m-33 -16 c-3 -3 -12 -4 -19 -1
-8 3 -5 6 6 6 11 1 17 -2 13 -5z m-75 -29 c-3 -16 -11 -25 -22 -25 -10 0 -27
-3 -37 -7 -16 -6 -16 -5 -4 11 8 9 21 14 30 11 8 -3 12 -3 8 1 -7 8 10 34 23
34 4 0 5 -11 2 -25z m-81 -92 c26 7 24 -5 -6 -33 -14 -13 -25 -18 -25 -12 0 7
5 12 12 12 6 0 9 2 6 5 -3 3 -17 1 -32 -4 -28 -11 -35 -1 -13 18 8 6 18 7 22
3 5 -4 5 -1 1 6 -4 6 -4 18 1 25 5 9 9 7 11 -6 3 -13 10 -17 23 -14z m175 -15
c-3 -24 -17 -38 -29 -32 -7 4 -9 4 -5 -1 4 -4 -4 -28 -17 -54 -13 -25 -26 -57
-30 -71 l-8 -25 23 20 23 20 -15 -25 c-24 -38 -32 -71 -17 -68 7 2 16 -14 21
-39 9 -44 29 -63 61 -58 10 2 17 -3 17 -11 0 -9 4 -13 9 -9 5 3 12 1 16 -5 9
-14 45 6 45 26 0 8 7 25 15 37 14 21 7 53 -10 45 -4 -1 -13 6 -19 17 -6 11
-13 22 -16 25 -3 3 -11 15 -17 27 -11 19 -11 21 3 16 13 -5 15 -1 10 18 l-7
24 20 -23 c16 -18 24 -21 39 -13 11 6 22 8 25 5 3 -4 31 -8 62 -9 66 -4 103
-28 82 -53 -9 -12 -9 -16 0 -19 10 -4 9 -8 -2 -19 -8 -9 -19 -12 -25 -9 -11 7
-13 -6 -4 -29 3 -9 12 -16 20 -16 8 0 11 -6 8 -15 -4 -8 -10 -12 -15 -9 -14 8
-3 -42 14 -66 13 -18 16 -19 27 -5 14 17 15 16 -20 33 l-25 12 26 -4 c17 -4
29 0 38 13 8 11 21 16 32 14 11 -3 19 0 19 6 0 5 6 8 14 5 10 -4 16 4 20 25
19 100 18 97 27 76 7 -18 8 -18 8 -2 1 11 -9 33 -21 50 l-22 32 22 -19 c30
-26 37 -15 12 17 -24 30 -26 41 -5 33 10 -4 15 1 15 15 0 11 5 17 10 14 6 -3
10 4 10 16 0 12 3 20 6 16 5 -5 10 -34 13 -81 1 -5 8 -3 16 4 16 13 18 7 16
-70 l0 -35 10 32 c10 36 30 55 22 22 -4 -14 0 -25 11 -31 22 -12 14 -53 -16
-86 -12 -12 -16 -22 -10 -22 6 0 14 5 17 10 4 6 11 8 16 4 15 -9 1 -22 -49
-45 -45 -21 -46 -22 -22 -29 l25 -7 -28 -8 c-33 -9 -26 -19 23 -34 33 -9 32
-10 -15 -5 -37 4 -46 3 -35 -5 8 -6 33 -11 55 -12 39 -1 39 -1 11 -9 -17 -6
-36 -5 -47 0 -22 12 -29 12 -29 1 0 -5 14 -14 30 -21 17 -7 29 -15 27 -17 -3
-2 -16 2 -31 8 -38 17 -57 -2 -31 -31 10 -11 15 -23 12 -26 -4 -4 -19 7 -34
25 -15 17 -33 31 -39 31 -15 0 -26 -28 -14 -35 6 -4 10 -11 10 -17 0 -6 -9 -3
-20 7 -19 18 -20 17 -20 -3 0 -12 -4 -22 -10 -22 -5 0 -10 -7 -10 -16 0 -8 -4
-13 -9 -10 -12 8 -26 -12 -39 -60 -7 -23 -19 -45 -27 -48 -20 -7 -19 0 5 39
19 32 20 32 1 54 l-19 22 1 -36 c1 -20 -3 -39 -9 -43 -5 -4 -9 -17 -8 -29 1
-14 -3 -20 -13 -16 -10 4 -11 9 -2 19 9 11 8 14 -5 14 -9 0 -15 6 -14 12 2 7
-4 13 -12 13 -10 0 -15 -10 -15 -27 1 -33 -1 -34 -15 -8 -8 14 -8 26 0 40 13
24 7 26 -14 4 -15 -14 -16 -13 -16 10 0 14 -4 26 -8 26 -9 0 -8 34 3 75 7 25
9 26 15 10 5 -14 8 -15 12 -4 3 8 1 25 -4 39 l-10 25 -10 -28 c-6 -18 -15 -26
-24 -23 -8 3 -14 0 -14 -7 -1 -7 -7 2 -15 20 -12 27 -80 83 -102 83 -4 0 16
-21 44 -47 46 -44 51 -53 58 -105 3 -32 10 -58 15 -58 9 0 62 -101 56 -107 -5
-6 -46 53 -46 66 0 6 -4 11 -10 11 -16 0 -34 44 -31 81 1 25 -4 41 -19 54 -21
19 -22 19 -38 -3 -17 -22 -17 -22 -30 -2 -12 20 -13 20 -37 -6 -34 -36 -32
-14 2 27 l27 32 -25 -7 c-22 -6 -23 -6 -6 7 16 13 16 15 1 21 -9 3 -21 3 -27
-1 -7 -4 -6 1 2 10 9 12 10 17 2 17 -7 0 -9 5 -6 10 8 13 -34 49 -57 50 -9 0
-27 14 -39 32 -23 32 -18 31 34 -5 l29 -20 -14 24 c-7 13 -16 26 -19 29 -9 7
-29 47 -29 57 0 4 11 -5 25 -22 23 -29 24 -29 20 -6 -3 14 -9 29 -15 35 -13
13 -13 59 0 51 6 -4 8 -11 5 -16 -4 -5 -2 -9 4 -9 6 0 10 16 9 36 -1 20 4 39
10 43 6 3 16 20 22 36 8 21 13 26 19 16 6 -9 10 -5 15 13 3 14 11 26 17 26 5
0 22 11 37 25 30 28 41 31 38 13z m404 -40 c0 -14 -19 1 -31 25 -12 22 -12 22
10 3 11 -11 21 -23 21 -28z m40 -21 c0 -5 -5 -7 -11 -5 -7 2 -13 17 -15 33
l-3 30 14 -25 c8 -14 14 -29 15 -33z m127 -4 c-3 -10 -5 -4 -5 12 0 17 2 24 5
18 2 -7 2 -21 0 -30z m-147 -19 c0 -2 -11 2 -25 8 -14 6 -25 15 -25 20 0 5 11
1 25 -8 14 -9 25 -18 25 -20z m210 -75 c0 -14 -17 -10 -23 5 -4 10 -1 13 9 9
7 -3 14 -9 14 -14z m37 -116 c7 -102 -15 -202 -63 -289 -38 -70 -55 -87 -92
-92 -15 -2 -29 -6 -32 -9 -3 -3 7 -3 23 -1 40 8 34 -4 -26 -50 -73 -56 -157
-93 -241 -105 -89 -13 -186 -2 -186 20 0 13 3 13 15 3 13 -11 14 -10 9 3 -3 9
-19 20 -36 26 -38 13 -41 13 -34 2 4 -5 0 -12 -6 -15 -7 -4 3 -4 22 -2 19 3
29 2 22 -1 -6 -2 -10 -9 -6 -14 10 -17 -21 -9 -85 24 -47 23 -65 38 -68 55 -2
14 1 21 7 17 5 -3 10 -1 10 4 0 6 -7 11 -15 11 -8 0 -15 6 -16 13 0 9 -2 9 -6
-1 -2 -6 -9 -10 -14 -6 -5 3 -9 0 -9 -5 0 -6 6 -11 14 -11 8 0 16 -7 20 -15
11 -30 -13 -14 -63 41 -67 73 -102 133 -95 162 9 33 24 16 18 -21 -2 -19 -1
-25 3 -15 6 12 12 15 23 8 16 -10 17 -12 19 -62 1 -26 4 -30 12 -18 8 12 9 11
7 -5 -2 -14 2 -19 15 -17 10 2 17 -3 17 -13 0 -8 8 -15 18 -14 10 0 12 3 5 6
-7 2 -13 9 -13 14 0 5 21 -7 47 -27 62 -47 107 -69 173 -83 30 -7 66 -16 80
-20 27 -7 68 0 175 32 39 12 76 20 84 19 7 -2 10 1 7 6 -3 5 8 19 24 31 17 12
30 17 30 12 0 -5 -6 -12 -12 -14 -7 -3 -1 -6 14 -6 15 -1 30 3 33 9 3 5 0 7
-9 4 -10 -4 -14 0 -12 13 2 11 17 22 42 29 22 6 40 18 42 27 2 10 8 17 13 17
5 0 9 5 9 10 0 7 -7 7 -21 0 -11 -7 -23 -10 -25 -7 -2 2 7 10 21 17 14 7 25
19 25 26 0 7 5 16 12 20 8 5 9 1 4 -12 -5 -12 -4 -15 2 -9 5 6 13 21 17 35 5
19 4 21 -4 10 -5 -8 -13 -12 -16 -8 -4 3 6 17 21 31 24 22 26 28 14 42 -11 13
-11 18 0 28 10 10 12 8 7 -6 -4 -11 -3 -16 4 -12 5 4 8 12 6 18 -2 7 0 20 5
30 6 11 6 23 0 30 -12 16 -23 47 -16 47 2 0 8 -10 13 -22 6 -16 8 -3 7 42 -1
53 -4 65 -17 64 -14 -1 -15 4 -6 39 10 38 11 39 20 16 5 -13 11 -61 14 -106z
m-20 10 c1 -34 0 -35 -8 -14 -9 22 -6 51 4 51 2 0 3 -17 4 -37z m-543 -14 c-8
-14 -24 -10 -24 6 0 9 6 12 15 9 8 -4 12 -10 9 -15z m486 -63 c0 -9 -49 -54
-54 -49 -11 11 -6 23 8 23 7 0 19 7 26 15 12 14 20 19 20 11z m46 -44 c-18
-16 -18 -16 -6 6 6 13 14 21 18 18 3 -4 -2 -14 -12 -24z m-816 1 c0 -11 -3
-14 -8 -7 -4 6 -14 14 -22 17 -10 4 -8 6 8 6 15 1 22 -5 22 -16z m20 -23 c-8
-5 -26 -9 -40 -9 -23 1 -23 2 5 9 43 11 52 11 35 0z m723 -7 c-7 -2 -19 -2
-25 0 -7 3 -2 5 12 5 14 0 19 -2 13 -5z m-684 -59 c-6 -8 -16 -14 -21 -14 -7
0 -6 5 1 13 6 8 8 17 4 21 -4 4 0 4 10 0 14 -5 15 -9 6 -20z m743 4 c-7 -7
-12 -8 -12 -2 0 14 12 26 19 19 2 -3 -1 -11 -7 -17z m-602 -58 c0 -5 -5 -10
-11 -10 -5 0 -7 5 -4 10 3 6 8 10 11 10 2 0 4 -4 4 -10z m-195 -90 c3 -5 1
-10 -4 -10 -6 0 -11 5 -11 10 0 6 2 10 4 10 3 0 8 -4 11 -10z m720 0 c-3 -5
-14 -10 -23 -10 -15 0 -15 2 -2 10 20 13 33 13 25 0z m-248 -42 c-10 -31 -22
-47 -47 -62 l-35 -19 33 31 c17 17 32 33 32 36 0 10 20 56 24 56 3 0 -1 -19
-7 -42z"/>
<path d="M817 813 c-4 -3 -7 -11 -7 -17 0 -6 5 -5 12 2 6 6 9 14 7 17 -3 3 -9
2 -12 -2z"/>
<path d="M1092 695 c-9 -11 -9 -15 -1 -15 6 0 9 -6 6 -14 -4 -11 -1 -11 19 -2
20 9 22 13 9 22 -8 6 -12 14 -8 17 3 4 2 7 -3 7 -5 -1 -15 -7 -22 -15z"/>
<path d="M1138 703 c7 -3 16 -2 19 1 4 3 -2 6 -13 5 -11 0 -14 -3 -6 -6z"/>
<path d="M1048 683 c7 -3 16 -2 19 1 4 3 -2 6 -13 5 -11 0 -14 -3 -6 -6z"/>
<path d="M912 511 c2 -8 14 -21 26 -29 20 -13 22 -13 22 2 0 9 5 16 10 16 6 0
10 4 10 10 0 6 -10 5 -26 -2 -21 -10 -27 -9 -35 3 -9 12 -10 12 -7 0z"/>
<path d="M1235 510 c-3 -5 -1 -10 4 -10 6 0 11 5 11 10 0 6 -2 10 -4 10 -3 0
-8 -4 -11 -10z"/>
<path d="M1090 479 c0 -5 5 -7 10 -4 6 3 10 8 10 11 0 2 -4 4 -10 4 -5 0 -10
-5 -10 -11z"/>
<path d="M1045 460 c10 -11 20 -20 22 -20 2 0 -2 9 -9 20 -7 11 -17 20 -22 20
-5 0 -1 -9 9 -20z"/>
<path d="M1260 455 c-7 -8 -15 -13 -19 -10 -4 2 -15 -4 -24 -15 -13 -15 -13
-21 -3 -29 10 -9 20 -2 40 29 26 40 30 53 6 25z"/>
<path d="M1290 433 c0 -6 8 -17 18 -24 16 -13 16 -13 2 6 -8 11 -16 22 -17 24
-2 2 -3 0 -3 -6z"/>
<path d="M1320 430 c0 -5 5 -10 10 -10 6 0 10 5 10 10 0 6 -4 10 -10 10 -5 0
-10 -4 -10 -10z"/>
<path d="M1150 421 c0 -6 4 -13 10 -16 6 -3 7 1 4 9 -7 18 -14 21 -14 7z"/>
<path d="M847 404 c-8 -8 1 -24 13 -24 4 0 10 7 14 15 5 15 -14 21 -27 9z"/>
<path d="M1119 403 c-5 -31 -3 -38 6 -38 6 0 19 -6 30 -14 15 -9 16 -11 3 -7
-20 6 -23 -10 -8 -34 9 -13 11 -13 20 0 8 12 10 12 10 1 0 -9 7 -6 20 9 23 26
26 50 8 68 -20 20 -30 13 -14 -10 18 -25 20 -38 8 -38 -5 0 -14 12 -20 26 -7
14 -17 22 -23 19 -6 -4 -17 1 -24 11 -9 12 -15 14 -16 7z"/>
<path d="M1075 329 c5 -12 -2 -20 -22 -27 -23 -9 -25 -11 -7 -11 29 -1 51 26
35 42 -10 9 -11 8 -6 -4z"/>
<path d="M1085 286 c-20 -11 -20 -11 3 -33 21 -21 23 -21 29 -5 3 9 8 20 9 23
8 15 -22 25 -41 15z"/>
<path d="M650 316 c0 -8 4 -17 9 -20 5 -4 7 3 4 14 -6 23 -13 26 -13 6z"/>
<path d="M1323 171 c-3 -13 -15 -21 -36 -23 -36 -4 -50 -28 -15 -27 22 0 22 1
3 9 -16 7 -13 9 18 9 20 1 37 5 37 9 0 5 10 14 23 21 l22 11 -24 -6 c-16 -4
-21 -3 -17 5 4 6 4 11 1 11 -4 0 -9 -9 -12 -19z"/>
<path d="M802 163 c2 -10 10 -18 18 -18 8 0 21 -7 28 -15 10 -13 11 -12 6 5
-5 17 -3 17 14 -4 15 -19 20 -21 25 -8 4 10 -2 17 -16 21 -12 3 -23 4 -25 3
-2 -1 -8 6 -13 16 -6 9 -17 17 -25 17 -9 0 -14 -7 -12 -17z m28 -3 c0 -5 -4
-10 -10 -10 -5 0 -10 5 -10 10 0 6 5 10 10 10 6 0 10 -4 10 -10z"/>
<path d="M1172 115 c-24 -8 -51 -11 -60 -8 -11 3 -8 -1 6 -11 20 -16 29 -16
80 -4 31 7 49 14 39 16 -9 2 -15 8 -12 13 8 11 1 10 -53 -6z m35 -11 c-3 -3
-12 -4 -19 -1 -8 3 -5 6 6 6 11 1 17 -2 13 -5z m-40 -10 c-3 -3 -12 -4 -19 -1
-8 3 -5 6 6 6 11 1 17 -2 13 -5z"/>
<path d="M992 93 c12 -11 36 -17 73 -18 47 -2 53 0 37 11 -20 16 -36 18 -27 4
8 -14 -8 -13 -22 1 -6 6 -26 13 -44 15 -31 4 -32 3 -17 -13z m43 -3 c3 -5 2
-10 -4 -10 -5 0 -13 5 -16 10 -3 6 -2 10 4 10 5 0 13 -4 16 -10z"/>
<path d="M935 1090 c-14 -7 -8 -8 20 -3 22 3 42 7 44 9 9 8 -45 2 -64 -6z"/>
<path d="M990 1079 c-17 -5 -19 -7 -7 -8 10 -1 16 -5 13 -9 -3 -5 15 -8 39 -8
38 -1 42 1 27 12 -15 12 -15 13 -1 14 9 0 22 -7 29 -15 12 -15 63 -18 54 -3
-9 15 13 8 26 -7 7 -9 19 -14 26 -11 7 3 16 1 19 -4 3 -5 23 -17 43 -27 20 -9
49 -25 64 -35 25 -17 27 -18 21 -2 -4 12 -3 15 5 10 7 -4 12 -14 12 -21 0 -8
6 -12 14 -9 9 3 15 -6 20 -27 3 -18 8 -30 10 -28 2 2 2 16 -1 31 -3 16 -22 38
-49 58 -34 24 -42 27 -38 13 5 -16 4 -16 -10 1 -9 11 -16 23 -16 28 0 4 -5 8
-11 8 -8 0 -8 -5 1 -15 8 -10 9 -15 2 -15 -6 0 -16 9 -22 20 -6 12 -23 25 -38
31 -37 14 -104 20 -97 8 4 -5 -1 -9 -10 -9 -10 0 -15 6 -12 13 5 14 -70 18
-113 6z m45 -9 c3 -5 2 -10 -4 -10 -5 0 -13 5 -16 10 -3 6 -2 10 4 10 5 0 13
-4 16 -10z m210 -30 c3 -5 2 -10 -4 -10 -5 0 -13 5 -16 10 -3 6 -2 10 4 10 5
0 13 -4 16 -10z"/>
<path d="M1680 815 c0 -148 1 -155 20 -155 18 0 20 7 20 60 l0 60 59 0 c84 0
106 20 106 95 0 80 -20 95 -126 95 l-79 0 0 -155z m153 106 c4 -4 7 -28 5 -52
-3 -48 -20 -58 -85 -51 -33 4 -33 5 -33 56 0 29 3 56 8 60 9 10 93 -1 105 -13z"/>
<path d="M1940 815 c0 -147 1 -155 20 -155 17 0 19 8 22 78 l3 77 36 19 c60
32 69 21 69 -84 0 -89 0 -90 25 -90 25 0 25 1 25 83 0 46 -6 93 -13 107 -15
31 -64 38 -109 16 -17 -9 -33 -16 -35 -16 -1 0 -3 27 -3 60 0 53 -2 60 -20 60
-19 0 -20 -7 -20 -155z"/>
<path d="M2962 948 c2 -15 10 -23 23 -23 30 0 27 39 -3 43 -20 3 -23 0 -20
-20z"/>
<path d="M3445 946 c-29 -29 -38 -75 -33 -166 3 -56 8 -74 28 -95 28 -30 84
-34 130 -10 27 14 30 14 30 0 0 -8 7 -15 15 -15 12 0 15 17 15 90 0 83 -1 90
-20 90 -18 0 -20 -7 -20 -60 0 -59 -1 -61 -36 -77 -32 -16 -38 -16 -62 -2 -32
18 -48 84 -38 153 11 71 24 81 100 80 57 0 66 2 66 18 0 16 -9 18 -75 18 -67
0 -79 -3 -100 -24z"/>
<path d="M1418 909 c2 -16 7 -31 11 -34 4 -2 5 9 3 26 -2 16 -7 31 -11 34 -4
2 -5 -9 -3 -26z"/>
<path d="M2228 860 c-43 -34 -44 -156 -2 -187 28 -20 118 -16 145 6 21 17 24
28 24 91 0 63 -3 74 -24 91 -32 26 -110 26 -143 -1z m106 -23 c9 -7 20 -32 23
-55 7 -55 -15 -92 -57 -92 -42 0 -60 23 -60 80 0 71 45 103 94 67z"/>
<path d="M2479 861 c-21 -17 -24 -28 -24 -91 0 -64 3 -74 24 -91 20 -16 37
-19 89 -17 89 4 96 26 10 30 -55 3 -64 6 -75 28 l-12 25 61 3 c34 2 68 8 75
14 22 18 16 85 -9 102 -32 23 -110 21 -139 -3z m109 -20 c8 -4 12 -19 10 -32
-3 -21 -9 -24 -55 -27 -58 -3 -65 6 -37 46 16 23 57 29 82 13z"/>
<path d="M2700 770 c0 -103 1 -110 20 -110 17 0 19 8 22 78 l3 77 36 19 c60
32 69 21 69 -84 0 -89 0 -90 25 -90 25 0 25 1 25 83 0 104 -13 131 -63 135
-23 2 -48 -3 -62 -12 -30 -20 -35 -20 -35 -1 0 8 -9 15 -20 15 -19 0 -20 -7
-20 -110z"/>
<path d="M2960 771 l0 -111 25 0 26 0 -3 108 c-3 102 -4 107 -25 110 -23 3
-23 2 -23 -107z"/>
<path d="M3081 843 c13 -21 27 -45 33 -54 7 -13 2 -29 -22 -66 -37 -58 -38
-63 -13 -63 11 0 30 20 50 52 l33 52 31 -52 c24 -39 38 -52 55 -52 26 0 25 0
-20 68 l-29 43 30 49 c37 59 37 60 11 60 -12 0 -29 -16 -46 -45 -14 -25 -29
-45 -32 -45 -4 0 -19 21 -34 45 -19 31 -34 45 -48 45 l-22 0 23 -37z"/>
<path d="M3700 770 c0 -103 1 -110 20 -110 17 0 19 8 22 83 l3 82 43 9 c30 7
42 15 42 28 0 22 -25 23 -64 3 -35 -18 -36 -18 -36 0 0 8 -7 15 -15 15 -12 0
-15 -19 -15 -110z"/>
<path d="M3895 855 c-21 -20 -25 -34 -25 -83 0 -87 22 -112 100 -112 78 0 100
25 100 112 0 80 -26 108 -100 108 -41 0 -56 -5 -75 -25z m119 -27 c21 -29 21
-102 0 -122 -8 -9 -28 -16 -44 -16 -40 0 -60 24 -60 73 0 55 22 87 60 87 18 0
34 -8 44 -22z"/>
<path d="M4114 863 c3 -10 17 -60 32 -111 28 -93 28 -93 58 -90 30 3 32 6 53
91 12 49 23 90 26 93 2 2 13 -38 23 -88 l20 -93 33 0 34 0 28 95 c34 112 35
120 11 120 -15 0 -23 -17 -41 -82 -12 -46 -21 -89 -21 -97 0 -35 -17 7 -35 87
-20 85 -21 87 -52 90 l-31 3 -22 -96 c-12 -53 -24 -95 -26 -93 -2 2 -14 44
-27 94 -20 76 -27 89 -46 92 -18 3 -22 0 -17 -15z"/>
<path d="M4074 425 c1 -52 4 -95 9 -95 4 0 7 43 7 95 0 52 -4 95 -8 95 -5 0
-8 -43 -8 -95z"/>
<path d="M4230 485 c0 -33 -1 -35 -21 -24 -53 28 -101 -50 -65 -106 14 -21 23
-24 61 -23 l45 2 0 93 c0 55 -4 93 -10 93 -5 0 -10 -16 -10 -35z m-12 -47 c7
-7 12 -27 12 -45 0 -56 -63 -69 -76 -16 -13 51 31 94 64 61z"/>
<path d="M1869 453 c17 -31 31 -72 31 -90 0 -18 5 -33 10 -33 6 0 10 17 10 38
0 22 12 58 29 90 19 33 25 52 17 52 -7 0 -21 -18 -31 -40 -10 -22 -22 -40 -26
-40 -5 0 -18 18 -29 40 -11 22 -25 40 -31 40 -6 0 3 -26 20 -57z"/>
<path d="M2380 419 l0 -92 52 5 c63 7 88 32 88 90 0 56 -34 88 -95 88 l-45 0
0 -91z m102 54 c23 -20 24 -80 1 -105 -9 -10 -30 -18 -50 -18 l-33 0 0 70 0
70 32 0 c17 0 40 -7 50 -17z"/>
<path d="M3251 438 c29 -107 30 -108 39 -108 5 0 20 34 32 77 l22 76 23 -76
c13 -43 28 -77 33 -77 5 0 14 19 20 43 6 23 18 64 25 90 11 36 11 47 3 45 -7
-3 -19 -32 -28 -66 -8 -33 -17 -63 -21 -66 -3 -3 -14 26 -24 64 -11 39 -24 70
-31 70 -6 0 -20 -29 -29 -65 -10 -36 -21 -65 -25 -65 -3 0 -13 28 -21 62 -8
34 -19 63 -26 65 -8 3 -6 -18 8 -69z"/>
<path d="M3700 420 l0 -90 43 0 c67 0 102 51 57 83 -18 12 -18 15 -5 20 22 9
19 54 -4 67 -11 5 -36 10 -55 10 l-36 0 0 -90z m88 46 c5 -22 -13 -36 -45 -36
-19 0 -23 5 -23 31 0 28 2 30 32 27 23 -2 34 -9 36 -22z m-4 -59 c31 -22 12
-57 -30 -57 -32 0 -34 2 -34 35 0 30 3 35 23 35 13 0 31 -6 41 -13z"/>
<path d="M4010 500 c0 -5 5 -10 10 -10 6 0 10 5 10 10 0 6 -4 10 -10 10 -5 0
-10 -4 -10 -10z"/>
<path d="M571 459 c-1 -18 20 -82 25 -77 2 2 -3 24 -11 48 -7 25 -14 38 -14
29z"/>
<path d="M2022 454 c-27 -18 -31 -84 -6 -108 23 -24 70 -20 88 6 23 32 20 65
-9 93 -28 29 -42 31 -73 9z m68 -23 c15 -29 12 -56 -9 -75 -36 -33 -81 17 -61
69 12 31 54 34 70 6z"/>
<path d="M2603 463 c-23 -9 -14 -20 12 -15 14 2 25 8 25 13 0 10 -17 11 -37 2z"/>
<path d="M2680 450 c-26 -26 -26 -81 -2 -103 20 -18 77 -23 87 -8 3 6 -14 11
-37 13 -31 2 -44 8 -46 21 -3 14 4 17 42 17 42 0 46 2 46 24 0 25 -32 56 -57
56 -7 0 -22 -9 -33 -20z m60 -4 c0 -2 3 -11 6 -20 5 -13 -1 -16 -30 -16 -39 0
-39 0 -30 24 5 14 54 24 54 12z"/>
<path d="M2833 463 c-23 -9 -13 -20 13 -15 16 3 30 -1 35 -9 14 -23 10 -29
-19 -29 -40 0 -65 -21 -60 -51 2 -18 10 -25 31 -27 16 -2 34 2 42 8 10 8 14 8
18 -2 3 -7 6 14 6 48 1 75 -18 97 -66 77z m51 -72 c10 -15 -29 -55 -47 -48
-22 8 -22 44 1 50 29 8 41 7 46 -2z"/>
<path d="M2985 460 c-4 -6 -13 -9 -21 -6 -11 4 -14 -8 -14 -59 0 -80 18 -86
22 -7 3 53 5 57 28 57 23 0 25 -4 28 -57 3 -67 22 -79 22 -15 0 50 18 81 46
75 16 -3 20 -13 22 -61 4 -73 22 -75 22 -3 0 63 -20 92 -54 81 -27 -9 -45 -9
-72 0 -13 4 -25 2 -29 -5z"/>
<path d="M3500 450 c-26 -26 -26 -81 -2 -103 20 -18 82 -23 82 -8 0 5 -13 9
-29 9 -34 -1 -51 8 -51 28 0 10 12 14 45 14 41 0 45 2 45 24 0 25 -32 56 -57
56 -7 0 -22 -9 -33 -20z m60 -4 c0 -2 3 -11 6 -20 5 -13 -1 -16 -30 -16 -39 0
-39 0 -30 24 5 14 54 24 54 12z"/>
<path d="M2150 414 c0 -71 12 -84 70 -82 l50 2 0 63 c0 35 -4 63 -10 63 -5 0
-10 -15 -10 -32 0 -71 -22 -98 -61 -78 -15 8 -19 22 -19 60 0 28 -4 50 -10 50
-5 0 -10 -21 -10 -46z"/>
<path d="M2560 395 c0 -78 16 -87 22 -12 5 56 1 77 -13 77 -5 0 -9 -29 -9 -65z"/>
<path d="M3850 414 c0 -71 12 -84 70 -82 l50 2 0 63 c0 35 -4 63 -10 63 -5 0
-10 -15 -10 -32 0 -71 -22 -98 -61 -78 -15 8 -19 22 -19 60 0 28 -4 50 -10 50
-5 0 -10 -21 -10 -46z"/>
<path d="M4010 395 c0 -37 4 -65 10 -65 6 0 10 28 10 65 0 37 -4 65 -10 65 -6
0 -10 -28 -10 -65z"/>
</g>
</svg>
