<?xml version="1.0" standalone="no"?>
<!DOCTYPE svg PUBLIC "-//W3C//DTD SVG 20010904//EN"
 "http://www.w3.org/TR/2001/REC-SVG-20010904/DTD/svg10.dtd">
<svg version="1.0" xmlns="http://www.w3.org/2000/svg"
 width="120.000000pt" height="120.000000pt" viewBox="0 0 120.000000 120.000000"
 preserveAspectRatio="xMidYMid meet">

<g transform="translate(0.000000,120.000000) scale(0.100000,-0.100000)"
fill="#000000" stroke="none">
<path d="M455 1179 c-22 -6 -77 -28 -122 -50 -143 -69 -247 -192 -303 -359
-31 -92 -31 -248 0 -340 56 -167 160 -290 303 -359 102 -50 158 -63 267 -63
109 0 165 13 267 63 143 69 247 192 303 359 31 92 31 248 0 340 -56 167 -160
290 -303 359 -45 22 -102 45 -127 50 -55 13 -230 12 -285 0z m222 -299 c29
-52 53 -104 53 -115 0 -24 -179 -348 -212 -382 -20 -22 -29 -23 -139 -23 -99
0 -118 3 -123 16 -6 17 3 36 204 389 109 194 126 217 148 213 8 -2 39 -46 69
-98z m211 -371 c34 -57 61 -113 60 -124 -3 -19 -12 -20 -134 -23 -175 -3 -174
-4 -99 129 62 108 81 132 99 126 6 -2 39 -50 74 -108z"/>
</g>
</svg>
