<?xml version="1.0" standalone="no"?>
<!DOCTYPE svg PUBLIC "-//W3C//DTD SVG 20010904//EN"
 "http://www.w3.org/TR/2001/REC-SVG-20010904/DTD/svg10.dtd">
<svg version="1.0" xmlns="http://www.w3.org/2000/svg"
 width="512.000000pt" height="512.000000pt" viewBox="0 0 512.000000 512.000000"
 preserveAspectRatio="xMidYMid meet">

<g transform="translate(0.000000,512.000000) scale(0.100000,-0.100000)"
fill="#000000" stroke="none">
<path d="M0 2560 l0 -2560 2560 0 2560 0 0 2560 0 2560 -2560 0 -2560 0 0
-2560z m2780 1790 c283 -35 581 -151 822 -320 112 -79 288 -246 374 -355 351
-450 471 -1032 324 -1580 -81 -305 -225 -558 -449 -789 -347 -356 -794 -546
-1291 -546 -474 0 -904 173 -1244 500 -259 250 -420 527 -505 872 -39 157 -51
259 -51 428 0 167 12 269 50 428 52 217 146 423 280 614 84 121 306 343 430
430 230 162 536 283 805 317 100 12 356 13 455 1z"/>
<path d="M2050 3122 c-71 -35 -70 -30 -70 -562 0 -432 2 -478 18 -510 35 -71
30 -70 562 -70 532 0 527 -1 562 70 16 32 18 78 18 510 0 532 1 527 -70 562
-32 16 -78 18 -510 18 -432 0 -478 -2 -510 -18z"/>
</g>
</svg>
