<?xml version="1.0" standalone="no"?>
<!DOCTYPE svg PUBLIC "-//W3C//DTD SVG 20010904//EN"
 "http://www.w3.org/TR/2001/REC-SVG-20010904/DTD/svg10.dtd">
<svg version="1.0" xmlns="http://www.w3.org/2000/svg"
 width="119.000000pt" height="119.000000pt" viewBox="0 0 119.000000 119.000000"
 preserveAspectRatio="xMidYMid meet">

<g transform="translate(0.000000,119.000000) scale(0.100000,-0.100000)"
fill="#000000" stroke="none">
<path d="M430 1161 c-50 -16 -103 -40 -90 -41 3 0 29 9 59 21 30 11 79 24 110
28 49 8 51 9 16 9 -22 1 -65 -7 -95 -17z"/>
<path d="M681 1170 c31 -5 80 -18 109 -29 30 -11 56 -19 58 -17 9 9 -118 48
-168 51 l-55 4 56 -9z"/>
<path d="M270 1089 c-47 -29 -155 -140 -176 -181 -21 -42 -16 -37 40 40 25 34
74 83 108 108 35 25 65 48 67 50 10 10 -7 2 -39 -17z"/>
<path d="M880 1107 c3 -3 33 -26 68 -51 34 -25 83 -74 108 -108 56 -76 63 -84
38 -38 -10 19 -48 64 -84 100 -36 36 -81 74 -100 84 -19 11 -33 17 -30 13z"/>
<path d="M635 1013 c15 -24 30 -43 32 -43 7 0 -31 61 -46 73 -8 7 -2 -7 14
-30z"/>
<path d="M460 817 c-74 -121 -136 -224 -138 -228 -2 -4 7 -13 20 -19 21 -10
21 -10 5 3 -16 13 -7 30 119 236 75 122 135 224 133 225 -2 2 -65 -96 -139
-217z"/>
<path d="M700 910 c6 -11 13 -20 16 -20 2 0 0 9 -6 20 -6 11 -13 20 -16 20 -2
0 0 -9 6 -20z"/>
<path d="M723 873 c18 -34 81 -133 84 -133 5 0 5 1 -42 78 -21 34 -40 62 -42
62 -2 0 -2 -3 0 -7z"/>
<path d="M40 793 c-12 -32 -23 -83 -25 -113 l-4 -55 9 56 c5 31 18 80 29 109
11 30 19 56 17 58 -2 2 -14 -23 -26 -55z"/>
<path d="M1120 850 c0 -3 9 -29 21 -59 11 -30 24 -79 28 -110 7 -45 9 -49 10
-20 1 37 -30 150 -49 179 -5 8 -10 13 -10 10z"/>
<path d="M819 715 c5 -11 17 -29 26 -40 l16 -20 -10 20 c-5 11 -17 29 -26 40
l-16 20 10 -20z"/>
<path d="M886 607 c3 -10 9 -15 12 -12 3 3 0 11 -7 18 -10 9 -11 8 -5 -6z"/>
<path d="M15 510 c3 -50 42 -177 51 -168 2 2 -6 28 -17 58 -11 29 -24 78 -29
109 l-9 56 4 -55z"/>
<path d="M375 553 c6 -6 28 -20 50 -32 22 -13 31 -15 20 -6 -22 18 -86 53 -70
38z"/>
<path d="M1170 523 c0 -21 -11 -69 -24 -108 -30 -85 -26 -99 4 -18 22 57 39
163 26 163 -3 0 -6 -17 -6 -37z"/>
<path d="M350 536 c0 -2 59 -39 132 -81 l131 -76 35 18 c18 10 36 22 39 27 3
5 -12 -1 -34 -13 l-39 -23 -125 72 c-68 40 -127 74 -131 77 -5 2 -8 2 -8 -1z"/>
<path d="M848 524 c-38 -20 -36 -28 2 -9 17 9 30 18 30 20 0 7 -1 6 -32 -11z"/>
<path d="M875 504 c-9 -15 -12 -23 -6 -20 11 7 35 46 28 46 -3 0 -12 -12 -22
-26z"/>
<path d="M381 450 c63 -90 208 -291 220 -304 5 -5 14 -5 22 2 16 14 80 102 73
102 -2 0 -21 -22 -41 -50 -20 -27 -40 -50 -43 -50 -4 0 -59 73 -122 162 -63
88 -125 173 -138 187 -13 14 0 -8 29 -49z"/>
<path d="M784 484 c-18 -14 -18 -15 4 -4 12 6 22 13 22 15 0 8 -5 6 -26 -11z"/>
<path d="M490 486 c0 -3 14 -12 30 -21 17 -9 30 -13 30 -11 0 3 -13 12 -30 21
-16 9 -30 13 -30 11z"/>
<path d="M728 454 c-38 -20 -36 -28 2 -9 17 9 30 18 30 20 0 7 -1 6 -32 -11z"/>
<path d="M839 453 c-13 -16 -12 -17 4 -4 16 13 21 21 13 21 -2 0 -10 -8 -17
-17z"/>
<path d="M560 446 c0 -3 9 -10 20 -16 11 -6 20 -8 20 -6 0 3 -9 10 -20 16 -11
6 -20 8 -20 6z"/>
<path d="M800 400 c-12 -16 -19 -30 -16 -30 2 0 14 14 26 30 12 17 19 30 16
30 -2 0 -14 -13 -26 -30z"/>
<path d="M763 348 c-43 -57 -66 -91 -58 -86 12 7 78 98 72 98 -3 0 -9 -6 -14
-12z"/>
<path d="M96 280 c25 -44 140 -159 184 -184 46 -25 38 -18 -38 38 -34 25 -83
74 -108 108 -56 76 -63 84 -38 38z"/>
<path d="M1062 250 c-38 -53 -80 -93 -162 -153 -24 -17 -24 -17 10 0 42 22
158 137 183 181 28 49 15 38 -31 -28z"/>
<path d="M350 60 c29 -19 142 -50 179 -49 29 1 25 3 -20 10 -31 4 -80 17 -110
28 -60 23 -72 26 -49 11z"/>
<path d="M785 48 c-27 -10 -74 -23 -105 -27 -45 -7 -48 -9 -19 -10 37 -1 150
30 179 49 23 15 1 10 -55 -12z"/>
</g>
</svg>
