<?xml version="1.0" standalone="no"?>
<!DOCTYPE svg PUBLIC "-//W3C//DTD SVG 20010904//EN"
 "http://www.w3.org/TR/2001/REC-SVG-20010904/DTD/svg10.dtd">
<svg version="1.0" xmlns="http://www.w3.org/2000/svg"
 width="125.000000pt" height="125.000000pt" viewBox="0 0 125.000000 125.000000"
 preserveAspectRatio="xMidYMid meet">

<g transform="translate(0.000000,125.000000) scale(0.100000,-0.100000)"
fill="#000000" stroke="none">
<path d="M555 1243 c-151 -23 -264 -80 -366 -182 -123 -123 -181 -262 -181
-436 0 -174 57 -313 182 -437 246 -247 625 -246 873 2 120 120 181 267 180
435 0 278 -194 530 -459 599 -66 17 -182 27 -229 19z m5 -321 l95 -57 3 -56
c3 -55 2 -57 -33 -78 -20 -11 -40 -21 -46 -21 -5 0 -9 22 -9 49 0 49 0 50 -57
85 -32 20 -67 36 -78 36 -12 0 -45 -15 -75 -33 l-55 -32 -3 -83 -3 -82 62 -40
c34 -22 67 -40 72 -40 10 0 90 45 286 162 36 21 73 38 84 38 23 0 188 -93 211
-119 14 -15 16 -40 14 -147 l-3 -128 -98 -58 c-55 -32 -111 -58 -125 -58 -15
0 -70 26 -122 58 l-95 58 -3 56 c-3 54 -2 56 33 77 20 12 41 19 46 16 5 -4 9
-26 9 -50 0 -43 1 -45 62 -80 70 -41 82 -41 154 7 l49 33 3 74 c3 85 -1 92
-82 136 -53 29 -57 29 -84 14 -15 -8 -87 -50 -160 -93 -194 -112 -165 -108
-281 -42 -55 32 -105 63 -111 71 -7 8 -10 59 -8 141 l3 127 95 58 c58 35 107
58 125 58 19 0 64 -20 125 -57z"/>
</g>
</svg>
